<svg xmlns:i="http://ns.adobe.com/AdobeIllustrator/10.0/" xmlns="http://www.w3.org/2000/svg" version="1.1" id="レイヤー_1" x="0px" y="0px" viewBox="0 0 400 400" style="enable-background:new 0 0 400 400;" xml:space="preserve">
<style type="text/css">
	.st0{fill:#FFF3F3;}
	.st1{fill:#84755D;}
	.st2{fill:#29426D;}
	.st3{fill:#FFD664;}
	.st4{fill:#6079B2;}
	.st5{fill:#ADBCF2;}
	.st6{fill:#E2DACF;}
	.st7{fill:#AAA59F;}
	.st8{fill:#F28B8B;}
	.st9{fill:#FDD6D8;}
	.st10{fill:#E56A70;}
</style>
<switch>
	<g i:extraneous="self">
		<path class="st0" d="M140.57,233.65c-0.81,13.35,0.44,23.69,2.11,35.15c1.17,8.04,0.97,16.42,2.13,24.46    c0.93,6.38,2.45,13.03,6.8,17.78c4.81,5.24,12.12,7.18,19.02,8.89c-4.04-2.43-8.07-4.97-11.42-8.3s-5.98-7.54-6.65-12.21    c-1-6.98,2.43-13.83,2.75-20.87c0.35-7.79-3.08-15.17-5.88-22.44c-2.81-7.27-5.04-15.43-2.32-22.74    c2.16-5.82,7.09-10.07,11.16-14.76c4.07-4.69,7.06-11.58,6.92-17.58c-0.64,2.75-2.58,6.36-4.68,8.3c-2.17,2-4.66,3.13-6.99,4.73    C146.74,218.73,141.03,226.21,140.57,233.65z"/>
		<path class="st1" d="M173.75,321.21l-3.23-0.8c-6.33-1.56-14.2-3.51-19.27-9.04c-4.51-4.92-6.04-11.88-6.93-18.04    c-0.59-4.04-0.83-8.22-1.07-12.27c-0.24-4.03-0.48-8.19-1.06-12.19c-1.64-11.31-2.93-21.78-2.11-35.25    c0.51-8.39,7.14-15.82,13.17-19.97c0.83-0.57,1.68-1.08,2.51-1.58c1.57-0.94,3.05-1.84,4.42-3.11c1.94-1.79,3.89-5.25,4.53-8.05    l0.89-3.86l0.09,3.96c0.14,5.8-2.63,12.84-7.04,17.92c-0.94,1.08-1.93,2.15-2.9,3.18c-3.21,3.45-6.54,7.03-8.17,11.42    c-2.74,7.39-0.2,15.85,2.32,22.39c0.36,0.94,0.73,1.87,1.1,2.81c2.52,6.36,5.12,12.94,4.81,19.83c-0.13,2.96-0.82,5.91-1.48,8.76    c-0.95,4.12-1.85,8.02-1.28,12.01c0.75,5.25,3.96,9.38,6.51,11.93c3.32,3.31,7.41,5.88,11.32,8.23L173.75,321.21z M164.44,204.56    c-0.96,2-2.27,3.92-3.58,5.13c-1.45,1.34-3.04,2.3-4.59,3.23c-0.81,0.49-1.65,1-2.46,1.55c-7.34,5.05-12.34,12.59-12.74,19.21l0,0    c-0.82,13.38,0.47,23.79,2.1,35.05c0.59,4.04,0.83,8.22,1.07,12.27c0.24,4.03,0.48,8.19,1.06,12.19    c0.87,6.01,2.35,12.8,6.68,17.51c4.06,4.42,10.1,6.48,15.59,7.93c-3.06-1.92-6.1-4.06-8.7-6.65c-2.66-2.65-6-6.97-6.79-12.49    c-0.6-4.18,0.36-8.35,1.29-12.38c0.65-2.81,1.32-5.71,1.45-8.58c0.3-6.68-2.26-13.16-4.74-19.42c-0.37-0.94-0.75-1.88-1.11-2.82    c-2.59-6.71-5.19-15.39-2.33-23.1c1.7-4.58,5.1-8.23,8.38-11.75c0.96-1.03,1.95-2.09,2.88-3.16    C161.29,214.37,163.68,209.28,164.44,204.56z"/>
		<path class="st0" d="M274.69,267.17c-5.01,30.62-2.09,62.62-11.58,92.16c-3.26-7.1-2.38-13.93,0.01-21.37    c2.5-7.77,2.06-17.45,2.99-25.5c1.62-13.97-1.11-28.12-0.14-42.15c0.66-9.49,3.03-18.86,6.96-27.53c2.3-5.06,5.12-9.88,7.11-15.07    S277.77,248.32,274.69,267.17z"/>
		<path class="st2" d="M272.35,233.86c-9.09-12.42-15.95-26.47-20.16-41.28c-1.21-4.26-2.24-8.67-4.63-12.39    c-1.91-2.97-4.59-5.36-7.24-7.7c-6.08-5.38-12.16-10.77-18.23-16.15c-0.7-0.62-1.44-1.26-2.36-1.44c-2.32-0.46-4.12,2.51-3.51,4.8    s2.63,3.87,4.15,6.42c7.49,15.41,21.5,27.78,25.11,44.54c3.29,15.28-3.31,31.76-14.97,42.15c-11.67,10.39-27.74,15.05-43.36,14.69    c-7.44-0.17-14.99-1.46-21.57-4.95s-12.09-9.4-14.33-16.51c-1.37-3-1.46-6.31-1.4-9.61c0,0,2.54-9.52,5.28-14.77    c0.55-1.05,1.09-2.38,0.4-3.35c-0.57-0.81-1.79-0.93-2.7-0.51s-1.55,1.23-2.12,2.04c-6.6,9.26-8.57,21.66-5.17,32.52    c1.56,4.96,4.15,9.57,5.44,14.62c1.74,6.82,0.97,14.05-0.6,20.92c-0.7,3.03-1.55,6.09-1.43,9.2s1.43,6.37,4.12,7.95    c0.2-4.5,0.47-9.23,2.84-13.06c2.76-4.44,7.8-6.82,12.57-8.97c9.89-4.45,20.09-8.98,30.93-9.44c13.23-0.57,25.85,4.94,38.44,9.05    c1.36,0.44,3.16,0.73,3.95-0.46c1.01-1.53-0.88-3.32-2.52-4.14c-9.07-4.55-18.91-7.57-28.97-8.89    c8.14-2.65,16.27-5.31,23.17-10.01c6.33-4.18,12.91-8.63,16.49-15.32c0.94-1.76,1.67-3.66,2.89-5.23s3.11-2.84,5.09-2.62    c2.45,0.26,4.17,2.58,6.5,3.38c2.93,1.01,6.51-0.96,7.3-4.06c-0.19-0.23-0.39-0.46-0.58-0.7"/>
		<path class="st3" d="M266.08,288.52c-1.91-18.42,1.58-35.07,9.6-51.87c-0.94-0.92-4.07-2.13-4.59-0.92    c-0.64,1.48-2.06,2.43-3.32,2.82c-2.08,0.65-3.96-1.7-5.93-2.61c-2.89-1.34-6.26-1.11-8.96,1.2s-4.9,4.64-6.58,7.77    c-1.68,3.13-3.61,6.32-6.66,8.15c-1.25,0.75-2.65,1.24-3.87,2.05c-1.22,0.81-2.29,2.04-2.34,3.5c-0.05,1.26,0.64,2.4,1.13,3.56    c1.08,2.59,1.15,5.6,0.18,8.24c-0.62,1.69-1.62,3.68-0.55,5.14c0.62,0.84,1.72,1.13,2.72,1.44c8.21,2.59,13.92,10.34,16.55,18.54    c2.63,8.2,2.72,16.95,3.19,25.55c0.11,1.92,0.71,14.12,1.38,17.11c0.52,2.31,3.32,11.29,3.32,11.29s3.18-18.09,3.3-26.21    C264.83,311.42,267.25,299.71,266.08,288.52z"/>
		<path class="st4" d="M154.12,306.32c-0.1,0-0.19-0.01-0.29-0.04c-4.51-1.21-6.66-6.35-6.44-10.8c0.13-2.64,0.87-5.17,1.58-7.61    c0.41-1.42,0.84-2.89,1.13-4.34c1.48-7.36-0.34-15.1-2.53-22.37c-0.31-1.02-0.62-2.04-0.94-3.06c-1.98-6.41-4.03-13.04-4.14-19.9    c-0.12-7.19,2.44-16.51,9.99-21.1c0.53-0.32,1.12-0.62,1.83-0.63c0.74,0,1.45,0.31,1.98,0.9c0.63,0.71,0.94,1.73,0.82,2.67    c-0.19,1.43-1.14,2.54-1.84,3.35c-0.4,0.46-1.1,0.52-1.56,0.12c-0.46-0.4-0.52-1.09-0.12-1.56c0.69-0.81,1.23-1.48,1.33-2.21    c0.04-0.3-0.07-0.67-0.28-0.9c-0.1-0.11-0.19-0.12-0.29-0.16c-0.21,0-0.55,0.21-0.72,0.31c-6.75,4.1-9.03,12.59-8.92,19.17    c0.11,6.54,2.11,13.02,4.05,19.28c0.32,1.02,0.63,2.05,0.94,3.07c2.27,7.55,4.16,15.61,2.58,23.44c-0.31,1.54-0.75,3.06-1.18,4.52    c-0.71,2.43-1.38,4.72-1.49,7.1c-0.17,3.48,1.45,7.66,4.8,8.56c0.59,0.16,0.94,0.76,0.78,1.35    C155.05,306,154.61,306.32,154.12,306.32z"/>
		<path class="st5" d="M153.49,224.27c-5.99,6.9-8.16,17.77-4.85,26.24c2.55,6.51,8.28,11.51,14.79,14.38    c6.51,2.87,13.75,3.78,20.89,3.9c12.4,0.21,24.96-1.94,36.11-7.25s20.81-13.89,26.34-24.73c5.53-10.84,6.66-23.95,2.1-35.21    c-1.84-4.55-9.04-11.42-12.77-14.72c-8.79-7.77-29.4-10.37-32.74-9.42C179.91,184.12,176.67,197.58,153.49,224.27z"/>
		<path class="st1" d="M185.94,269.3c-0.54,0-1.08,0-1.63-0.01c-8.48-0.14-15.38-1.43-21.08-3.95c-7.16-3.15-12.65-8.49-15.05-14.65    c-3.34-8.55-1.31-19.55,4.94-26.75l0,0c6.44-7.42,11.29-13.74,15.57-19.33c10.89-14.21,17.46-22.78,34.55-27.64    c3.33-0.95,24.26,1.62,33.21,9.53c2.51,2.22,10.85,9.84,12.9,14.91c4.45,10.98,3.65,24.3-2.12,35.62    c-5.35,10.48-14.78,19.34-26.57,24.95C210.57,266.78,198.6,269.3,185.94,269.3z M153.87,224.59L153.87,224.59    c-6.02,6.93-7.97,17.5-4.76,25.73c2.31,5.92,7.61,11.05,14.52,14.1c5.58,2.46,12.35,3.72,20.69,3.86    c13.12,0.21,25.52-2.27,35.88-7.2c11.59-5.52,20.86-14.22,26.11-24.51c5.65-11.07,6.42-24.07,2.08-34.79    c-1.97-4.86-10.17-12.35-12.64-14.53c-8.72-7.71-29.05-10.23-32.27-9.32c-16.77,4.77-23.26,13.25-34.03,27.29    C165.19,210.81,160.33,217.16,153.87,224.59z"/>
		<path class="st6" d="M102.44,53.1c18.69,30.91,36.59,62.96,51.1,96.56c8.76,20.27,16.32,43.24,8.83,64.02    c-3.65,10.13-10.84,20.03-8.62,30.57c2.36,11.21,14.42,17.52,25.64,19.83c14.59,3,30.37-0.49,43.4-7.69    c13.04-7.2,21.76-20.21,22.62-35.07c0.99-17.2-8.24-31.06-17.58-45.52c-30.53-47.25-79.5-148.64-79.5-148.64L102.44,53.1z"/>
		<path class="st7" d="M190.21,258.52c-3.26,0-6.46-0.32-9.49-0.94c-8.79-1.81-18.78-6.62-20.48-14.69    c-1.16-5.52,1.66-11.66,4.64-18.16c1.3-2.83,2.64-5.76,3.73-8.79c8.32-23.11,0.13-47.79-8.98-68.9    c-11.98-27.74-29.89-62.01-51.14-97.66l33.97-18.91c11.24,23.32,53.45,108.16,79.79,148.93l0.61,0.94    c8.63,13.34,16.77,25.94,15.93,40.6c-0.71,12.32-7.89,23.4-19.2,29.65C210.31,255.7,199.88,258.52,190.21,258.52    C190.22,258.52,190.22,258.52,190.21,258.52z"/>
		<path class="st1" d="M190.16,265.64c-3.72,0-7.37-0.35-10.87-1.08c-5.34-1.1-23-5.8-26.02-20.21c-1.64-7.82,1.8-15.34,5.14-22.61    c1.24-2.7,2.51-5.48,3.5-8.23c7.48-20.77-0.26-43.83-8.82-63.65c-12.49-28.93-28.3-58.83-51.26-96.95l0.86-0.52    c22.98,38.16,38.81,68.09,51.32,97.07c8.64,20,16.44,43.29,8.85,64.39c-1,2.79-2.29,5.6-3.54,8.31    c-3.27,7.12-6.64,14.49-5.07,21.98c2.9,13.82,20.06,18.37,25.25,19.44c13.54,2.78,29.23,0,43.06-7.63    c13.17-7.27,21.53-20.23,22.36-34.66c0.96-16.66-7.72-30.08-16.9-44.29l-0.61-0.94c-30.2-46.74-78.65-147.87-79.14-148.89    l0.9-0.43c0.49,1.02,48.92,102.09,79.08,148.78l0.61,0.94c9.28,14.35,18.04,27.9,17.06,44.88c-0.85,14.78-9.4,28.04-22.88,35.48    C212.57,262.6,201.04,265.64,190.16,265.64z"/>
		<path class="st4" d="M279.22,198.16c-1.97-5.05-5.07-10.01-7.88-14.83c-0.75-1.29-1.53-2.83-0.95-4.22    c0.62-1.48,2.59-1.98,4.11-1.46c1.51,0.52,2.65,1.77,3.64,3.03c7.98,10.08,11.47,23.24,11.38,36.1c-0.01,1.47-0.08,3.02-0.84,4.28    c-0.76,1.26-2.42,2.1-3.75,1.46c-1.32-0.64-1.69-2.31-1.91-3.76C281.95,211.69,282.49,206.55,279.22,198.16z"/>
		<path class="st2" d="M274.61,180.94c2.19,2.62,4.03,5.51,5.57,8.54c1.55,3.03,2.83,6.19,3.87,9.43c1,3.25,1.73,6.58,2.21,9.95    c0.49,3.36,0.68,6.77,0.51,10.17c-0.02,0.3-0.28,0.54-0.58,0.52c-0.3-0.02-0.53-0.26-0.52-0.56c0.02-3.33-0.25-6.65-0.75-9.94    c-0.51-3.29-1.28-6.53-2.29-9.7c-0.97-3.18-2.19-6.29-3.66-9.26c-1.49-2.97-3.21-5.82-5.22-8.46c-0.19-0.24-0.14-0.59,0.1-0.78    C274.08,180.68,274.42,180.72,274.61,180.94z"/>
		<path class="st6" d="M263.52,360.88c-0.43,9.23-8.37,17.67-6.25,26.68h-53.15c-0.67-11.74-1.37-23.6-4.79-34.88    c-3.43-11.28-9.87-22.08-19.9-28.59c-5.28-3.44-11.35-5.57-16.63-9.02c-4.18-2.73-7.95-6.64-9.32-11.23    c0.29-3.48,2.06-6.96,4.6-9.45c3.98-3.92,9.45-5.9,14.79-7.54c21.61-6.63,45.18-9.49,66.96-4.34c3.11,1.76,5.96,3.54,8.34,6.06    c6.7,7.09,8.67,17.26,9.14,26.89c0.49,9.63-0.21,19.45,2.32,28.77C261.15,349.74,263.79,355.16,263.52,360.88z"/>
		<path class="st7" d="M210.76,387.52c-0.65-9.99-2.05-26.85-5.08-36.84c-3.03-9.97-9.41-23.64-22.63-32.23    c-2.96-1.92-6.01-3.42-8.96-4.87c-2.74-1.35-5.34-2.62-7.65-4.13c-2.89-1.89-5.05-4.15-6.12-6.36c0.4-1.44,1.26-2.91,2.4-4.03    c3.03-2.99,7.83-4.63,12.1-5.94c14.48-4.44,28.38-6.7,41.33-6.7c7.49,0,14.68,0.77,21.38,2.28c2.31,1.24,4.27,2.69,5.82,4.33    c4.48,4.74,6.81,11.94,7.34,22.66c0.13,2.48,0.17,4.95,0.21,7.56c0.13,7.37,0.26,15,2.33,22.61c0.47,1.73,1.02,3.4,1.56,5.01    c1.15,3.46,2.23,6.74,2.1,9.62c-0.13,2.83-1.66,5.95-2.85,9.4c-2.57,7.46-3.49,12.89-3.42,17.48L210.76,387.52z"/>
		<path class="st1" d="M256.79,387.6c-1.24-5.27,0.88-10.4,2.92-15.35c1.54-3.72,3.13-7.56,3.31-11.46    c0.19-4.01-1.13-7.99-2.41-11.83c-0.51-1.53-1.03-3.11-1.46-4.69c-1.87-6.88-2-14.12-2.12-21.11c-0.04-2.55-0.09-5.18-0.22-7.76    c-0.61-12.27-3.47-20.71-9.01-26.57c-2.17-2.31-4.92-4.3-8.14-5.93c-19.43-4.57-42.47-3.07-66.64,4.35    c-4.96,1.52-10.59,3.47-14.59,7.42c-2.5,2.44-4.15,5.81-4.44,9.04c1.64,5.36,6.39,9.11,9.09,10.87c2.62,1.72,5.51,3.13,8.3,4.5    c2.79,1.37,5.67,2.79,8.33,4.52c11.67,7.58,17.38,19.88,20.11,28.86c3.45,11.39,4.14,23.39,4.81,35l-1,0.06    c-0.66-11.54-1.35-23.48-4.77-34.76c-2.68-8.82-8.28-20.9-19.69-28.31c-2.6-1.69-5.46-3.1-8.23-4.46    c-2.82-1.38-5.73-2.82-8.4-4.57c-4.88-3.19-8.26-7.27-9.52-11.51l-0.03-0.09l0.01-0.09c0.29-3.49,2.06-7.14,4.75-9.77    c4.16-4.1,9.92-6.11,15-7.66c24.36-7.48,47.61-8.98,67.22-4.35l0.11,0.04c3.36,1.69,6.21,3.76,8.47,6.16    c5.71,6.04,8.66,14.69,9.28,27.21c0.13,2.59,0.18,5.23,0.22,7.79c0.12,6.94,0.25,14.11,2.08,20.87c0.42,1.55,0.94,3.12,1.44,4.63    c1.3,3.93,2.65,7.99,2.45,12.19c-0.19,4.08-1.81,8-3.38,11.8c-2.08,5.03-4.04,9.78-2.88,14.74L256.79,387.6z"/>
		<path class="st5" d="M158.08,294.45c3.98-3.92,9.45-5.9,14.79-7.54c20.96-6.43,43.76-9.31,64.99-4.79c0.21,0.05,0.3-0.25,0.1-0.33    c-2.71-1.07-7.9-2.99-12.51-3.9c-9.19-1.82-18.64-4.51-27.98-3.77c-9.02,0.72-17.93,4.78-26.42,7.83    c-4.33,1.55-8.63,3.45-12.09,6.44c-3.46,2.99-6.01,7.23-6.03,11.74c-0.01,1.29,0.2,2.55,0.56,3.76    C153.78,300.41,155.55,296.94,158.08,294.45z"/>
		<path class="st4" d="M164.79,202.74c0.36-1.11,0.61-2.34-0.01-3.32c-0.62-0.99-1.83-1.57-2.99-1.45c-2.59,0.28-3.7,3.31-4.83,5.66    c-3.27,6.83-10.55,10.81-14.9,17.01c-0.43,0.61-0.84,1.28-0.88,2.02c-0.04,0.74,0.43,1.56,1.17,1.66    c0.64,0.09,1.15-0.45,1.71-0.79c6.59-3.92,8.86-7.14,14.12-11.67C160.43,209.93,163.71,206.06,164.79,202.74z"/>
		<path class="st2" d="M162.99,201.87c0,0.34-0.22,0.53-0.37,0.76l-0.49,0.68l-1.01,1.34c-0.68,0.88-1.38,1.75-2.1,2.61    c-1.43,1.71-2.94,3.36-4.5,4.96c-3.1,3.2-6.43,6.16-9.8,9.04c-0.23,0.2-0.58,0.17-0.78-0.06c-0.19-0.23-0.17-0.57,0.05-0.77    c3.29-2.96,6.54-5.94,9.6-9.11c1.52-1.59,2.99-3.22,4.39-4.91c0.7-0.85,1.38-1.71,2.04-2.58l0.98-1.32l0.48-0.67    c0.17-0.22,0.28-0.48,0.6-0.59l0.01-0.01c0.35-0.12,0.73,0.06,0.85,0.41C162.97,201.72,162.99,201.8,162.99,201.87z"/>
		<path class="st4" d="M278.37,282.54c0.41-5.03,0.69-10.08,0.84-15.12c0.03-0.99,0.04-2.02-0.37-2.92    c-0.42-0.9-1.41-1.61-2.37-1.38c-1.21,0.29-1.65,1.76-1.86,2.99c-2.15,12.46-2.91,25.16-2.27,37.79c0.05,1.05,0.23,2.27,1.15,2.77    c0.82,0.44,1.89,0.03,2.49-0.68c0.6-0.71,0.83-1.65,1.04-2.56C278.5,296.76,277.77,289.91,278.37,282.54z"/>
		<path class="st2" d="M274.14,302.68c0.01-2.98,0.08-5.97,0.24-8.94c0.13-2.98,0.34-5.95,0.53-8.93c0.36-5.95,0.83-11.9,1.34-17.84    c0.02-0.3,0.29-0.53,0.59-0.51c0.29,0.02,0.52,0.28,0.51,0.57c-0.19,5.96-0.43,11.92-0.77,17.87c-0.17,2.98-0.31,5.95-0.53,8.93    c-0.19,2.97-0.47,5.94-0.81,8.91c-0.03,0.3-0.31,0.52-0.61,0.49C274.35,303.2,274.14,302.95,274.14,302.68z"/>
		<path class="st8" d="M148.78,26.89c0,0,40.44,88.34,68.94,131.44c0.77,0.46,1.8-0.58,1.96-1.46c0.16-0.88-6.06-11.12-7.01-12.78    c-16.97-29.61-57.74-120.03-57.74-120.03"/>
		<path class="st1" d="M218.33,158.75c-0.42,0-0.8-0.07-1.06-0.22l-0.1-0.06l-0.06-0.1c-28.19-42.64-68.45-130.29-68.85-131.17    l0.91-0.42c0.4,0.88,40.55,88.3,68.7,130.92c0.46,0.16,1.63-0.07,2-0.32c-2.29-3.12-5.31-8.65-6.93-11.64    c-0.4-0.74-0.71-1.31-0.9-1.64c-16.79-29.3-57.1-118.92-57.51-119.83l0.91-0.41c0.41,0.9,40.7,90.48,57.47,119.74    c0.19,0.33,0.51,0.91,0.91,1.65c1.64,3.01,4.68,8.6,6.95,11.64c0.25,0.34,0.23,0.75-0.07,1.07    C220.28,158.45,219.21,158.75,218.33,158.75z"/>
		<path class="st3" d="M153.73,25.72c1.95,0.1,3.63,1.37,5.13,2.63c12.68,10.72,21.92,25.02,29.45,39.89s13.51,30.49,20.86,45.44    c10.54,21.46,23.88,41.51,39.57,59.49c1.5,1.72,3.11,4.15,1.89,6.09c-0.96,1.52-3.52,2.52-4.88,1.35    c-14.06-12.17-21.57-17.76-28.34-28.26c-14.73-22.82-21.24-43.13-35.72-70.07c-10.51-19.56-23.93-33.16-33.04-54.7    C149.64,27.29,151.77,25.62,153.73,25.72z"/>
		<path class="st1" d="M247.26,181.62c-0.71,0-1.35-0.22-1.83-0.64c-2.1-1.82-4.05-3.49-5.88-5.05    C229.1,167,222.8,161.61,217,152.62c-8.72-13.51-14.62-26.25-20.86-39.75c-4.4-9.51-8.95-19.34-14.87-30.36    c-4.38-8.15-9.35-15.38-14.16-22.38c-6.69-9.74-13.61-19.81-18.94-32.4l-0.18-0.42l0.4-0.22c0.84-0.46,3.48-1.63,5.66-1.52    c2.04,0.1,3.53,1.03,5.14,2.38c11.1,9.38,20.49,22.11,29.57,40.05c4,7.9,7.62,16.15,11.13,24.12c3.09,7.04,6.29,14.32,9.74,21.33    c10.53,21.44,23.82,41.42,39.5,59.38c2.37,2.71,3.02,4.96,1.93,6.68c-0.65,1.04-1.96,1.86-3.24,2.05    C247.62,181.61,247.44,181.62,247.26,181.62z M149.27,27.78c5.26,12.29,12.07,22.21,18.66,31.79c4.82,7.02,9.81,14.28,14.21,22.47    c5.93,11.04,10.49,20.89,14.9,30.41c6.23,13.46,12.12,26.18,20.8,39.63c5.72,8.87,11.98,14.22,22.36,23.1    c1.83,1.56,3.78,3.24,5.88,5.05c0.49,0.42,1.13,0.43,1.58,0.36c1-0.15,2.04-0.81,2.54-1.6c0.82-1.3,0.2-3.15-1.84-5.49    c-15.73-18.02-29.07-38.07-39.64-59.59c-3.45-7.03-6.66-14.32-9.75-21.37c-3.5-7.96-7.12-16.19-11.11-24.07    c-9.02-17.82-18.34-30.44-29.33-39.74c-1.49-1.26-2.77-2.06-4.54-2.15C152.47,26.5,150.45,27.21,149.27,27.78z"/>
		<path class="st4" d="M233.62,185.04c-0.36,0-0.7-0.19-0.88-0.53c-2.23-4.19-4.68-7.75-7.05-11.19c-2.47-3.6-5.03-7.32-7.36-11.77    c-0.37-0.7-0.8-1.54-0.8-2.46c0-0.63,0.36-1.3,0.95-1.79c0.58-0.48,1.27-0.68,1.9-0.56c0.62,0.12,1.37,0.77,5.03,4.36    c0.7,0.69,1.41,1.38,2.06,2c2.55,2.45,5.56,5.08,8.75,7.86c2.7,2.36,5.49,4.8,8.02,7.15c0.4,0.38,0.43,1.01,0.05,1.41    c-0.38,0.41-1.01,0.43-1.41,0.05c-2.51-2.33-5.29-4.76-7.98-7.11c-3.2-2.8-6.23-5.44-8.81-7.92c-0.66-0.63-1.37-1.33-2.07-2.02    c-1.46-1.43-3.43-3.36-4.06-3.81c-0.15,0.06-0.38,0.27-0.41,0.41c0,0.4,0.3,0.97,0.56,1.47c2.28,4.37,4.81,8.04,7.25,11.59    c2.4,3.49,4.88,7.1,7.16,11.39c0.26,0.49,0.07,1.09-0.41,1.35C233.94,185,233.78,185.04,233.62,185.04z"/>
		<path class="st8" d="M148.99,26.9c21.35,27.63,41.19,56.75,56.86,87.96c7.33,14.6,16.58,29.22,26.45,43.1    c9.59,13.49,19.16,22.63,36.95,26.86l0.43,0.36c-23.77-19.61-38.92-47.73-50.44-76.3s-23.15-69.8-38.53-96.76L148.99,26.9z"/>
		<path class="st1" d="M269.36,185.56c-0.12-0.1-0.23-0.19-0.35-0.29c-17.97-4.3-27.53-13.53-37.11-27.02    c-10.88-15.31-19.79-29.84-26.49-43.17c-14.02-27.93-32.07-55.84-56.8-87.84l0.79-0.61c24.77,32.05,42.85,60.02,56.91,88.01    c6.67,13.29,15.56,27.77,26.41,43.04c9.09,12.8,18.15,21.7,34.56,26.13c-19.21-16.59-34.66-40.43-48.5-74.74    c-3.82-9.48-7.62-20.24-11.63-31.62c-8.17-23.15-16.61-47.09-26.87-65.07l0.87-0.5c10.31,18.06,18.77,42.04,26.95,65.23    c4.01,11.38,7.8,22.12,11.62,31.58c14.14,35.07,29.97,59.14,49.77,75.67l0.01,0l0.52,0.44L269.36,185.56z"/>
		<path class="st0" d="M232.16,258.42c3.4,3.16,3.98,8.91,1.27,12.68c-0.58,0.81-1.33,1.84-0.81,2.7c0.34,0.56,1.06,0.72,1.69,0.9    c3.73,1.03,6.66,4.55,6.65,8.55c6.18,2.87,11.04,8.42,13.19,14.89c0.13-11.33-3.49-22.79-10.52-31.68    C241.15,263.31,237.24,259.36,232.16,258.42z"/>
		<path class="st1" d="M254.62,301.1l-0.94-2.82c-2.18-6.53-6.96-12.04-12.78-14.75l-0.29-0.13l0-0.32c0.01-3.55-2.7-6.88-6.44-7.91    l-0.14-0.04c-0.64-0.17-1.43-0.39-1.85-1.08c-0.68-1.13,0.19-2.35,0.82-3.23c2.49-3.46,3.98-8.21,0.74-11.22l-1.24-1.15l1.66,0.29    c4.48,0.78,7.01,3.68,9.85,7.4c6.98,9.13,10.75,20.49,10.62,31.99L254.62,301.1z M241.61,282.77c5.15,2.48,9.49,7.07,12,12.61    c-0.45-10.32-4.08-20.4-10.37-28.62c-2.45-3.2-4.51-5.62-7.75-6.66c2.29,3.39,0.77,7.93-1.65,11.3c-0.51,0.71-1.13,1.58-0.79,2.15    c0.21,0.35,0.74,0.49,1.25,0.63l0.14,0.04C238.5,275.33,241.46,278.9,241.61,282.77z"/>
		<path class="st4" d="M240.96,283.41c-0.3,0-0.75-0.29-1.15-0.55c-1.84-1.2-4.03-1.91-6.1-2.66c-0.56-0.21-0.95-0.51-0.74-1.06    c0.21-0.56,0.84-0.84,1.4-0.64c1.72,0.63,3.38,1.4,4.95,2.31c-0.68-1.44-1.86-2.58-2.99-3.54c-1.41-1.2-3.3-2.08-5.76-2.68    c-0.58-0.14-0.94-0.73-0.8-1.3c0.14-0.58,0.74-0.93,1.32-0.79c2.8,0.68,4.98,1.71,6.66,3.13c1.69,1.43,3.69,3.44,4.19,6.25    c0.2,1.12-0.09,1.18-0.36,1.33C241.41,283.31,241.24,283.41,240.96,283.41z M239.81,282.3h0.01H239.81z"/>
		<path class="st4" d="M233.91,259.36c-0.05,0-0.1,0-0.15-0.01c-0.6-0.08-1.03-0.63-0.95-1.24c0.21-1.61,1.39-3.12,3.33-4.25    c0.71-0.42,1.46-0.76,2.18-1.08c0.73-0.33,1.42-0.65,2.06-1.03c2.67-1.59,4.35-4.31,5.72-6.74l0.47-0.84    c1.4-2.51,2.84-5.11,5.16-7.13c2.52-2.2,6.7-3.77,10.35-2.29c0.87,0.35,1.61,0.83,2.33,1.3c0.71,0.46,1.39,0.9,2.12,1.17    c1.02,0.37,2.88-0.4,3.84-1.6c0.38-0.48,1.08-0.56,1.55-0.17c0.48,0.38,0.55,1.08,0.17,1.55c-1.37,1.72-4.18,3.08-6.33,2.29    c-0.96-0.35-1.77-0.88-2.56-1.39c-0.66-0.43-1.29-0.84-1.96-1.11c-2.78-1.12-6.05,0.15-8.06,1.91c-2.03,1.77-3.38,4.2-4.68,6.54    l-0.48,0.85c-1.51,2.68-3.38,5.69-6.51,7.56c-0.74,0.44-1.52,0.8-2.28,1.14c-0.7,0.32-1.37,0.62-1.99,0.98    c-1.31,0.76-2.13,1.72-2.25,2.63C234.93,258.95,234.46,259.36,233.91,259.36z"/>
		<path class="st5" d="M236.59,265.24c-0.07-3.63-1.81-6.5-3.88-6.42c-0.82,0.03-5.08,2.95-5.79,3.32    c-6.36,3.31-10.92,5.48-19.84,6.73c-0.34,0.05-0.7,0.34-0.61,0.63c0.07,0.23,0.38,0.31,0.64,0.35c7.17,1.24,14.34,2.49,21.51,3.73    c1.73,0.3,3.59,0.59,5.21-0.02C235.45,272.94,236.62,267.08,236.59,265.24z"/>
		<path class="st1" d="M231.62,274.41c-1.08,0-2.15-0.19-3.09-0.35l-21.51-3.73c-0.21-0.04-0.87-0.15-1.03-0.7    c-0.07-0.24-0.03-0.49,0.11-0.71c0.18-0.29,0.54-0.51,0.91-0.56c8.74-1.22,13.26-3.33,19.68-6.67c0.18-0.1,0.7-0.43,1.3-0.81    c2.7-1.72,4.09-2.54,4.7-2.56c0.79-0.03,1.57,0.29,2.24,0.93c1.3,1.23,2.11,3.46,2.15,5.98c0.03,1.62-1.03,8.03-3.08,8.8    C233.24,274.31,232.43,274.41,231.62,274.41z M207.2,269.34l21.51,3.74c1.51,0.26,3.4,0.59,4.95,0.01    c1.22-0.46,2.47-5.79,2.43-7.84l0,0c-0.04-2.22-0.75-4.24-1.84-5.27c-0.48-0.46-1.02-0.68-1.52-0.66c-0.51,0.05-3.09,1.7-4.2,2.41    c-0.67,0.43-1.16,0.74-1.38,0.85C220.65,265.96,216.06,268.1,207.2,269.34L207.2,269.34z"/>
		<path class="st1" d="M263.55,360.06l-0.42-1.7c-2.2-8.82-2.87-13.15-0.49-20.54c1.67-5.19,2.01-11.26,2.35-17.14    c0.17-2.9,0.32-5.64,0.63-8.26c0.87-7.5,0.47-15.21,0.08-22.66c-0.33-6.38-0.67-12.99-0.22-19.47c0.67-9.61,3.03-18.93,7.01-27.7    c0.9-1.98,1.89-3.95,2.85-5.85c1.5-2.97,3.04-6.04,4.25-9.19c1.65-4.3,1.91-12.82,1.83-15.82c-0.02-0.37-0.05-0.74-0.08-1.1    l0.98-0.17c0.03,0.1,0.05,0.36,0.07,0.76c1.02,13.91-1.75,27.82-4.44,41.29c-0.96,4.83-1.96,9.83-2.77,14.75    c-1.97,12.05-2.64,24.33-3.29,36.2c-1,18.18-2.03,36.98-7.79,54.94L263.55,360.06z M281.26,225.33c-0.21,0.95-0.46,1.82-0.75,2.57    c-1.23,3.19-2.79,6.29-4.29,9.28c-0.95,1.9-1.94,3.85-2.83,5.81c-3.93,8.66-6.26,17.87-6.92,27.35c-0.45,6.42-0.11,13,0.22,19.35    c0.39,7.49,0.79,15.24-0.09,22.83c-0.3,2.6-0.46,5.32-0.62,8.21c-0.34,5.94-0.69,12.08-2.39,17.39    c-2.14,6.65-1.72,10.77,0.08,18.26c5.26-17.32,6.25-35.44,7.21-52.98c0.65-11.9,1.33-24.21,3.31-36.31    c0.81-4.94,1.81-9.95,2.77-14.79C278.73,243.46,280.53,234.42,281.26,225.33z"/>
		<path class="st5" d="M151.5,269.81c-0.89,3.31-1.08,6.8-0.53,10.19c0.21,1.3,0.78,2.56,1.78,3.41c2.55,2.17,5.62,0.37,8.13-1.18    c5.61-3.45,11.82-5.92,18.25-7.25c0.7-0.14,1.43-0.29,1.98-0.75c0.55-0.46,0.81-1.35,0.37-1.91c-0.3-0.38-0.8-0.57-1.27-0.59    c-8.76-0.38-16-1.49-23.34-5.15C154.69,265.49,152.14,267.44,151.5,269.81z"/>
		<path class="st1" d="M155.41,284.9c-1.02,0-2.03-0.31-2.98-1.12c-1.29-1.1-1.77-2.62-1.95-3.71c-0.56-3.41-0.37-7.01,0.54-10.4    c0.41-1.54,1.58-2.93,2.96-3.56c1.05-0.47,2.15-0.47,3.11,0.01c7.9,3.94,15.79,4.78,23.14,5.1c0.67,0.03,1.28,0.32,1.65,0.79    c0.63,0.8,0.28,2-0.44,2.6c-0.64,0.53-1.45,0.7-2.17,0.85c-6.45,1.34-12.53,3.76-18.12,7.2    C159.58,283.62,157.49,284.9,155.41,284.9z M155.56,266.76c-0.45,0-0.86,0.13-1.17,0.27c-1.12,0.5-2.07,1.65-2.41,2.91l0,0    c-0.88,3.26-1.05,6.71-0.52,9.98c0.15,0.92,0.55,2.21,1.61,3.11c2.16,1.84,4.69,0.53,7.54-1.22c5.69-3.5,11.88-5.96,18.41-7.32    c0.66-0.14,1.31-0.27,1.76-0.64c0.35-0.29,0.56-0.89,0.3-1.22c-0.18-0.23-0.53-0.39-0.9-0.4c-7.46-0.32-15.48-1.18-23.54-5.2    C156.27,266.83,155.9,266.76,155.56,266.76z"/>
		<path class="st1" d="M153.83,305.77l-0.76-2.52c-0.34-1.13-0.69-2.29-0.68-3.7c0.02-4.19,2.12-8.12,6.24-11.68    c3.72-3.22,8.28-5.11,12.25-6.53c1.71-0.61,3.44-1.27,5.19-1.93c6.93-2.63,14.1-5.35,21.37-5.92c7.6-0.6,15.3,1.05,22.74,2.65    c1.8,0.39,3.59,0.77,5.37,1.12c6.08,1.2,14.65,4.98,16.32,5.73l0.58,0.14l-0.52,0.99l-0.38-0.17c-20.77-4.89-45.74-3.69-68.52,3.3    c-4.96,1.52-10.59,3.47-14.59,7.42l0,0c-2.69,2.63-4.12,5.41-4.38,8.48L153.83,305.77z M200.73,274.36    c-1.07,0-2.14,0.04-3.21,0.12c-7.12,0.57-14.22,3.26-21.09,5.86c-1.75,0.66-3.49,1.32-5.2,1.94c-3.88,1.39-8.33,3.23-11.93,6.34    c-3.89,3.36-5.87,7.04-5.9,10.93c0,0.41,0.03,0.79,0.08,1.16c0.67-2.4,2.08-4.63,4.26-6.76c4.16-4.1,9.92-6.11,15-7.66    c21.15-6.49,44.19-8.03,64.06-4.36c-3.37-1.35-7.85-2.98-11.43-3.69c-1.79-0.35-3.58-0.74-5.39-1.13    C213.66,275.76,207.15,274.36,200.73,274.36z"/>
		<path class="st3" d="M150.01,274.8c-0.24-2.17-1.06-4.26-2.33-5.96c-0.43-0.58-1.04-1.16-1.71-1.04c-1,0.19-1.2,1.65-1.15,2.76    c0.18,4.15,0.44,8.29,0.78,12.43c0.05,0.59,0.13,1.24,0.57,1.6c0.78,0.64,1.83-0.27,2.35-1.16    C150.09,280.68,150.28,277.28,150.01,274.8z"/>
		<path class="st1" d="M146.75,285.3c-0.33,0-0.63-0.11-0.9-0.33c-0.58-0.48-0.69-1.25-0.75-1.94c-0.34-4.12-0.6-8.31-0.78-12.44    c-0.08-1.88,0.48-3.07,1.56-3.27c0.75-0.14,1.49,0.27,2.2,1.23c1.31,1.76,2.17,3.96,2.42,6.2l0,0c0.17,1.56,0.37,5.55-1.56,8.93    c-0.38,0.67-1.09,1.45-1.92,1.6C146.94,285.3,146.85,285.3,146.75,285.3z M146.15,268.29c-0.03,0-0.06,0-0.09,0.01    c-0.62,0.12-0.78,1.28-0.74,2.24c0.18,4.12,0.44,8.3,0.78,12.41c0.04,0.49,0.1,1.02,0.38,1.25c0.11,0.09,0.22,0.12,0.37,0.09    c0.39-0.07,0.9-0.54,1.23-1.12c1.78-3.12,1.59-6.86,1.43-8.32c-0.23-2.07-1.02-4.1-2.23-5.71    C147.04,268.82,146.58,268.29,146.15,268.29z"/>
		<path class="st6" d="M258.34,174.91c-2.57-0.74-5.22-1.5-7.89-1.25c-2.67,0.24-5.4,1.71-6.35,4.22c-0.95,2.51,0.07,5.29,1.08,7.78    c2.28,5.63,4.56,11.25,6.84,16.88c4.88,12.03,10.06,24.5,19.77,33.12c0.98,0.87,2.22,1.74,3.48,1.4c1.07-0.3,1.71-1.37,2.2-2.38    c5.07-10.39,5.98-22.74,2.47-33.76S269.47,178.13,258.34,174.91z"/>
		<path class="st5" d="M274.21,237.09c-0.88-0.18-1.72-0.8-2.42-1.43c-9.71-8.61-14.89-21.09-19.77-33.12    c-2.28-5.63-4.57-11.25-6.84-16.88c-1.01-2.49-2.02-5.27-1.07-7.78c0.53-1.43,1.64-2.51,2.98-3.23c0.53,4.17,1.75,8.3,3.31,12.2    c3.18,7.94,6.24,15.6,9.76,23.41c3.01,6.71,6.35,13.97,10.03,20C271.56,232.51,272.69,234.92,274.21,237.09z"/>
		<path class="st1" d="M274.7,237.64c-1.27,0-2.43-0.88-3.24-1.6c-9.99-8.87-15.25-21.86-19.9-33.31l-6.84-16.88    c-1.09-2.69-2.07-5.53-1.08-8.15c0.93-2.47,3.59-4.25,6.77-4.54c2.81-0.25,5.6,0.55,8.07,1.27l0,0    c13.48,3.9,19.84,19.72,21.94,26.35c3.55,11.16,2.64,23.6-2.5,34.13c-0.54,1.11-1.26,2.29-2.52,2.64    C275.17,237.61,274.93,237.64,274.7,237.64z M251.51,174.11c-0.34,0-0.67,0.01-1.01,0.05c-2.13,0.19-4.96,1.33-5.93,3.9    c-0.86,2.28,0.02,4.81,1.07,7.42l6.84,16.88c4.6,11.35,9.82,24.22,19.63,32.94c0.78,0.7,1.95,1.58,3.01,1.29    c0.87-0.24,1.44-1.2,1.89-2.11c5.03-10.3,5.92-22.47,2.45-33.39c-2.06-6.47-8.25-21.93-21.27-25.69    C256.02,174.76,253.78,174.11,251.51,174.11z"/>
		<path class="st7" d="M276.89,224.21c-0.27,2.08-3.04,2.63-4.05,0.79c-4.35-7.97-8.57-18.23-11.94-25.92l-6.93-15.82    c-1.06-2.42-1.21-3.26-1.14-3.55c0.06-0.14,0.54-0.61,1.3-0.76c0.15-0.03,0.29-0.05,0.44-0.06c1.27-0.11,2.85,0.29,4.38,0.68    c8.9,2.24,14.37,14.99,16.31,20.37C277.65,206.54,277.92,216.23,276.89,224.21z"/>
		<path class="st4" d="M259.62,311.25c-0.18-4.91,0.38-9.86,1.65-14.61c0.23-0.84,0.55-1.77,1.32-2.16c0.94-0.48,2.14,0.11,2.7,1    c0.56,0.9,0.64,2,0.7,3.05c0.78,14.75-0.42,29.61-3.55,44.05c-0.11,0.52-0.25,1.08-0.67,1.42c-0.64,0.51-1.65,0.2-2.16-0.44    s-0.65-1.48-0.77-2.29C257.47,331.56,260,321.82,259.62,311.25z"/>
		<path class="st2" d="M260.64,338.68c0.04-3.29,0.17-6.58,0.4-9.85l0.68-9.8c0.49-6.53,0.72-13.03,0.85-19.54    c0.01-0.31,0.26-0.55,0.57-0.54c0.28,0.01,0.51,0.22,0.54,0.49c0.39,3.29,0.38,6.59,0.29,9.88c-0.13,3.29-0.37,6.57-0.62,9.84    c-0.25,3.27-0.58,6.53-0.86,9.79c-0.27,3.26-0.59,6.51-0.74,9.77c-0.01,0.31-0.27,0.54-0.58,0.53    C260.87,339.22,260.64,338.97,260.64,338.68z"/>
		<path class="st9" d="M153.7,27.16c5.45,6.46,10.63,13.14,15.59,19.99c4.97,6.84,9.66,13.88,14.19,21.02    c4.46,7.19,8.74,14.48,12.74,21.93l2.95,5.61l2.86,5.66l2.74,5.72l2.64,5.76l-2.88-5.64l-2.94-5.61l-2.98-5.58l-3.06-5.54    c-4.13-7.36-8.4-14.64-12.91-21.77c-4.45-7.17-9.14-14.19-13.96-21.11C163.85,40.67,158.83,33.88,153.7,27.16z"/>
		<path class="st9" d="M217.42,109.73c2.41,5.4,4.9,10.75,7.54,16.03c2.65,5.27,5.39,10.5,8.34,15.61    c2.88,5.15,5.97,10.17,9.16,15.14l2.41,3.71l2.47,3.67l2.5,3.66l2.54,3.63c-1.87-2.29-3.66-4.64-5.44-7l-2.59-3.6l-2.53-3.65    c-3.33-4.9-6.42-9.95-9.38-15.07c-2.89-5.17-5.66-10.4-8.16-15.77C221.76,120.73,219.45,115.28,217.42,109.73z"/>
		<path class="st9" d="M207.98,114.45c2.65,5.27,5.42,10.46,8.39,15.54c2.97,5.08,6.07,10.08,9.41,14.91    c3.28,4.88,6.79,9.6,10.43,14.22l2.76,3.44l2.83,3.39l2.87,3.36l2.93,3.31l-3.12-3.13l-3.04-3.21l-2.95-3.3l-2.88-3.37    c-3.78-4.54-7.31-9.28-10.66-14.14c-3.29-4.9-6.42-9.92-9.26-15.1C212.86,125.19,210.25,119.89,207.98,114.45z"/>
		<path class="st9" d="M214.73,111.82c2.49,5.29,5.08,10.53,7.84,15.67c2.76,5.14,5.62,10.23,8.68,15.2    c2.99,5.01,6.17,9.91,9.4,14.77c1.62,2.43,3.26,4.85,4.92,7.25l5,7.21c-1.84-2.27-3.61-4.6-5.39-6.92    c-1.74-2.35-3.46-4.72-5.16-7.1c-3.37-4.78-6.55-9.7-9.62-14.69c-3-5.03-5.89-10.13-8.51-15.36    C219.26,122.61,216.84,117.27,214.73,111.82z"/>
		<path class="st9" d="M211.32,111.82c2.19,4.76,4.46,9.48,6.88,14.12c2.42,4.63,4.93,9.22,7.65,13.69    c2.65,4.51,5.49,8.89,8.43,13.22l2.22,3.23l2.28,3.19l2.31,3.18l2.35,3.15c-1.74-1.96-3.4-3.99-5.05-6.03l-2.4-3.12l-2.34-3.16    c-3.08-4.25-5.93-8.66-8.66-13.15c-2.66-4.53-5.19-9.13-7.47-13.86C215.23,121.55,213.14,116.74,211.32,111.82z"/>
		<path class="st10" d="M178.94,16.11c3.52,7.49,6.87,15.06,10.15,22.66c3.28,7.6,6.43,15.26,9.56,22.92    c3.05,7.69,6.09,15.4,8.98,23.15l4.28,11.66c1.37,3.9,2.77,7.8,4.09,11.72l-9.08-23.1c-3.04-7.69-6.07-15.39-9.19-23.05    c-3.05-7.69-6.2-15.34-9.34-23L178.94,16.11z"/>
		<path class="st10" d="M173.65,18.25c3.48,7.49,6.85,15.03,10.21,22.57l9.97,22.68l9.75,22.77l4.8,11.42l4.7,11.46l-5.15-11.26    l-5.06-11.31l-9.96-22.68l-9.75-22.77C179.94,33.52,176.74,25.91,173.65,18.25z"/>
		<path class="st10" d="M169.05,19.79c3.59,7.51,7.08,15.07,10.56,22.63l10.31,22.74L200.03,88l4.98,11.45l4.88,11.49l-5.33-11.29    l-5.23-11.34l-10.31-22.74l-10.1-22.84C175.58,35.11,172.27,27.47,169.05,19.79z"/>
		<path class="st10" d="M164.37,22.62c1.98,3.63,3.87,7.31,5.73,10.99c1.87,3.68,3.66,7.4,5.5,11.1c1.76,3.74,3.56,7.45,5.29,11.21    l2.57,5.64c0.82,1.9,1.68,3.78,2.47,5.68c-1-1.81-1.94-3.65-2.92-5.47l-2.82-5.52c-1.87-3.68-3.66-7.4-5.49-11.11    c-1.76-3.74-3.56-7.45-5.29-11.21C167.69,30.19,165.98,26.43,164.37,22.62z"/>
		<path class="st9" d="M159.14,25.71c2.77,2.97,5.19,6.23,7.42,9.62c2.2,3.4,4.21,6.93,5.8,10.67c-2.29-3.35-4.43-6.76-6.64-10.12    C163.53,32.49,161.28,29.16,159.14,25.71z"/>
		<path class="st8" d="M148.72,26.91c16.57,22.94,24.98,32.41,37.21,54.07c17,30.12,32.36,67.21,58.14,93.4    c0.09,0.09,1.53,1.43,1.41,1.44c1.81-1.54,3.06-2.02,4.66-2.21c-23.69-18.25-34.84-46.91-45.73-74.76    c-10.89-27.85-25.25-50.03-42.95-77.78C155.91,23.46,154.08,24.4,148.72,26.91z"/>
		<path class="st1" d="M244.1,176.33l0.67-0.57c-0.18-0.18-0.46-0.46-0.91-0.87l-0.16-0.15c-19.47-19.77-32.83-45.41-45.75-70.19    c-4.26-8.17-8.28-15.88-12.47-23.31c-9.05-16.03-16.05-25.46-25.74-38.5c-3.35-4.51-7.14-9.61-11.43-15.55l0.81-0.59    c4.28,5.93,8.08,11.04,11.42,15.54c9.71,13.08,16.73,22.52,25.81,38.61c4.2,7.45,8.23,15.17,12.49,23.34    c12.89,24.72,26.21,50.29,45.57,69.95l0.13,0.13c0.45,0.43,0.77,0.73,0.99,0.95c1.31-1.05,2.35-1.54,3.4-1.8    c-23.11-18.3-34.18-46.61-44.89-73.99l-0.11-0.29c-10.55-26.97-24.14-48.27-41.34-75.24l-1.57-2.45l0.84-0.54l1.57,2.45    c17.23,27.01,30.85,48.34,41.43,75.41l0.11,0.29c10.8,27.61,21.96,56.16,45.45,74.26l0.97,0.75l-1.22,0.15    c-1.4,0.17-2.56,0.55-4.3,2.01l-0.08,0.2L244.1,176.33z"/>
		<path class="st10" d="M152.2,28.17c3.73,4.04,7.26,8.26,10.65,12.59c3.4,4.33,6.61,8.8,9.73,13.33c3.05,4.58,6.02,9.22,8.78,13.98    c1.37,2.39,2.71,4.79,4.02,7.2c1.27,2.44,2.54,4.88,3.72,7.36l-2.06-3.57l-2.09-3.55c-1.39-2.37-2.81-4.72-4.25-7.05    c-2.89-4.66-5.83-9.29-8.94-13.81c-3.04-4.56-6.25-9.01-9.51-13.43C158.98,36.82,155.61,32.48,152.2,28.17z"/>
		<path class="st10" d="M159.68,23.34c3.2,4.28,6.24,8.68,9.19,13.14c2.95,4.46,5.76,9.01,8.53,13.59c2.7,4.62,5.36,9.26,7.87,13.98    c1.24,2.37,2.48,4.74,3.68,7.12c1.17,2.4,2.36,4.8,3.47,7.23l-3.9-7c-1.29-2.34-2.6-4.66-3.92-6.98    c-2.64-4.64-5.29-9.27-8.05-13.84c-2.69-4.61-5.5-9.14-8.31-13.68C165.42,32.36,162.54,27.86,159.68,23.34z"/>
		<path class="st10" d="M155.1,25.07c3.59,3.95,6.97,8.09,10.2,12.35c3.23,4.26,6.25,8.67,9.16,13.15    c2.84,4.53,5.57,9.12,8.08,13.84l1.84,3.56l1.78,3.59c1.13,2.42,2.25,4.84,3.28,7.3l-1.84-3.55l-1.88-3.53l-1.9-3.52l-1.96-3.48    c-2.63-4.63-5.35-9.21-8.24-13.68c-2.83-4.51-5.85-8.9-8.93-13.24C161.59,33.53,158.38,29.28,155.1,25.07z"/>
		<path class="st9" d="M190.67,83.73c3.82,7.64,7.63,15.29,11.58,22.86c3.95,7.57,7.97,15.1,12.28,22.46    c4.23,7.41,8.74,14.65,13.5,21.73l3.62,5.27l3.75,5.19l3.85,5.12l3.97,5.02l-4.18-4.86l-4.03-4.99l-3.87-5.11l-3.74-5.21    c-4.9-7.01-9.42-14.28-13.73-21.67c-4.24-7.43-8.29-14.96-12.09-22.61C197.76,99.28,194.13,91.55,190.67,83.73z"/>
		<path class="st9" d="M192.36,80.58c1.88,3.43,3.67,6.91,5.43,10.39c1.77,3.48,3.46,7.01,5.19,10.51    c1.66,3.54,3.36,7.05,4.99,10.61l2.42,5.34c0.77,1.8,1.58,3.58,2.32,5.39c-0.95-1.71-1.84-3.45-2.76-5.17l-2.67-5.22    c-1.77-3.49-3.46-7.01-5.19-10.51c-1.66-3.54-3.36-7.06-4.98-10.61C195.48,87.75,193.87,84.19,192.36,80.58z"/>
		<path class="st10" d="M167.18,61.18c2.86,5.22,5.63,10.49,8.38,15.76c2.75,5.28,5.43,10.59,8.15,15.88    c2.65,5.33,5.33,10.64,7.94,15.99l3.9,8.03c1.27,2.69,2.56,5.37,3.8,8.08c-1.44-2.61-2.83-5.24-4.24-7.86l-4.15-7.91    c-2.75-5.28-5.43-10.59-8.14-15.89c-2.64-5.33-5.33-10.64-7.94-15.99C172.27,71.94,169.67,66.59,167.18,61.18z"/>
		<path class="st9" d="M203.42,131.06l6.17,10.9l6.28,10.84c-0.69-0.79-1.32-1.63-1.97-2.45c-0.62-0.84-1.23-1.7-1.83-2.56    c-1.2-1.72-2.29-3.51-3.35-5.33c-1.03-1.83-2.02-3.68-2.9-5.58C204.94,134.97,204.11,133.04,203.42,131.06z"/>
	</g>
</switch>
</svg>